<?xml version="1.0" encoding="UTF-8" standalone="no"?>
<!DOCTYPE svg PUBLIC "-//W3C//DTD SVG 1.1//EN"
 "http://www.w3.org/Graphics/SVG/1.1/DTD/svg11.dtd">
<!-- Generated by graphviz version 2.40.1 (20161225.0304)
 -->
<!-- Title: dependencies Pages: 1 -->
<svg width="2087pt" height="284pt"
 viewBox="0.00 0.00 2087.00 284.00" xmlns="http://www.w3.org/2000/svg" xmlns:xlink="http://www.w3.org/1999/xlink">
<g id="graph0" class="graph" transform="scale(1 1) rotate(0) translate(4 280)">
<title>dependencies</title>
<polygon fill="#ffffff" stroke="transparent" points="-4,4 -4,-280 2083,-280 2083,4 -4,4"/>
<text text-anchor="start" x="1018.5091" y="-42.4" font-family="sans-serif" font-weight="bold" font-size="14.00" fill="#000000">Legend</text>
<polygon fill="#ffffb3" stroke="transparent" points="805.5,-10 805.5,-30 825.5,-30 825.5,-10 805.5,-10"/>
<text text-anchor="start" x="829.129" y="-15.4" font-family="sans-serif" font-size="14.00" fill="#000000"> &#160;Declarations</text>
<polygon fill="#8dd3c7" stroke="transparent" points="918.5,-10 918.5,-30 938.5,-30 938.5,-10 918.5,-10"/>
<text text-anchor="start" x="942.2251" y="-15.4" font-family="sans-serif" font-size="14.00" fill="#000000"> &#160;Module</text>
<polygon fill="#80b1d3" stroke="transparent" points="1004.5,-10 1004.5,-30 1024.5,-30 1024.5,-10 1004.5,-10"/>
<text text-anchor="start" x="1028.2812" y="-15.4" font-family="sans-serif" font-size="14.00" fill="#000000"> &#160;Bootstrap</text>
<polygon fill="#fdb462" stroke="transparent" points="1101.5,-10 1101.5,-30 1121.5,-30 1121.5,-10 1101.5,-10"/>
<text text-anchor="start" x="1125.1732" y="-15.4" font-family="sans-serif" font-size="14.00" fill="#000000"> &#160;Providers</text>
<polygon fill="#fb8072" stroke="transparent" points="1197.5,-10 1197.5,-30 1217.5,-30 1217.5,-10 1197.5,-10"/>
<text text-anchor="start" x="1221.2258" y="-15.4" font-family="sans-serif" font-size="14.00" fill="#000000"> &#160;Exports</text>
<g id="clust1" class="cluster">
<title>cluster_AppModule</title>
<polygon fill="none" stroke="#000000" stroke-dasharray="1,5" points="8,-70 8,-268 2071,-268 2071,-70 8,-70"/>
</g>
<g id="clust2" class="cluster">
<title>cluster_AppModule_declarations</title>
<polygon fill="none" stroke="#000000" points="168,-78 168,-130 2063,-130 2063,-78 168,-78"/>
</g>
<g id="clust15" class="cluster">
<title>cluster_AppModule_imports</title>
<polygon fill="none" stroke="#000000" points="16,-78 16,-130 160,-130 160,-78 16,-78"/>
</g>
<g id="clust17" class="cluster">
<title>cluster_AppModule_bootstrap</title>
<polygon fill="none" stroke="#000000" points="987,-208 987,-260 1111,-260 1111,-208 987,-208"/>
</g>
<!-- AllListingsComponent -->
<g id="node1" class="node">
<title>AllListingsComponent</title>
<polygon fill="#ffffb3" stroke="#000000" points="2055.3342,-122 1910.6658,-122 1910.6658,-86 2055.3342,-86 2055.3342,-122"/>
<text text-anchor="middle" x="1983" y="-99.8" font-family="Times,serif" font-size="14.00" fill="#000000">AllListingsComponent</text>
</g>
<!-- AppModule -->
<g id="node13" class="node">
<title>AppModule</title>
<polygon fill="#8dd3c7" stroke="#000000" points="1090.6571,-187 1087.6571,-191 1066.6571,-191 1063.6571,-187 1007.3429,-187 1007.3429,-151 1090.6571,-151 1090.6571,-187"/>
<text text-anchor="middle" x="1049" y="-164.8" font-family="Times,serif" font-size="14.00" fill="#000000">AppModule</text>
</g>
<!-- AllListingsComponent&#45;&gt;AppModule -->
<g id="edge1" class="edge">
<title>AllListingsComponent&#45;&gt;AppModule</title>
<path fill="none" stroke="#000000" d="M1983,-122.0908C1983,-145.1328 1983,-182 1983,-182 1983,-182 1100.9465,-182 1100.9465,-182"/>
<polygon fill="#000000" stroke="#000000" points="1100.9466,-178.5001 1090.9465,-182 1100.9465,-185.5001 1100.9466,-178.5001"/>
</g>
<!-- ApartmentCardComponent -->
<g id="node2" class="node">
<title>ApartmentCardComponent</title>
<polygon fill="#ffffb3" stroke="#000000" points="1893.4129,-122 1724.5871,-122 1724.5871,-86 1893.4129,-86 1893.4129,-122"/>
<text text-anchor="middle" x="1809" y="-99.8" font-family="Times,serif" font-size="14.00" fill="#000000">ApartmentCardComponent</text>
</g>
<!-- ApartmentCardComponent&#45;&gt;AppModule -->
<g id="edge2" class="edge">
<title>ApartmentCardComponent&#45;&gt;AppModule</title>
<path fill="none" stroke="#000000" d="M1809,-122.0449C1809,-143.6623 1809,-177 1809,-177 1809,-177 1100.6717,-177 1100.6717,-177"/>
<polygon fill="#000000" stroke="#000000" points="1100.6717,-173.5001 1090.6717,-177 1100.6716,-180.5001 1100.6717,-173.5001"/>
</g>
<!-- ApartmentsListComponent -->
<g id="node3" class="node">
<title>ApartmentsListComponent</title>
<polygon fill="#ffffb3" stroke="#000000" points="1707.4241,-122 1538.5759,-122 1538.5759,-86 1707.4241,-86 1707.4241,-122"/>
<text text-anchor="middle" x="1623" y="-99.8" font-family="Times,serif" font-size="14.00" fill="#000000">ApartmentsListComponent</text>
</g>
<!-- ApartmentsListComponent&#45;&gt;AppModule -->
<g id="edge3" class="edge">
<title>ApartmentsListComponent&#45;&gt;AppModule</title>
<path fill="none" stroke="#000000" d="M1623,-122.2228C1623,-142.3652 1623,-172 1623,-172 1623,-172 1100.743,-172 1100.743,-172"/>
<polygon fill="#000000" stroke="#000000" points="1100.7431,-168.5001 1090.743,-172 1100.743,-175.5001 1100.7431,-168.5001"/>
</g>
<!-- AppComponent -->
<g id="node4" class="node">
<title>AppComponent</title>
<polygon fill="#ffffb3" stroke="#000000" points="1520.9399,-122 1415.0601,-122 1415.0601,-86 1520.9399,-86 1520.9399,-122"/>
<text text-anchor="middle" x="1468" y="-99.8" font-family="Times,serif" font-size="14.00" fill="#000000">AppComponent</text>
</g>
<!-- AppComponent&#45;&gt;AppModule -->
<g id="edge4" class="edge">
<title>AppComponent&#45;&gt;AppModule</title>
<path fill="none" stroke="#000000" d="M1468,-122.2222C1468,-140.8285 1468,-167 1468,-167 1468,-167 1100.7072,-167 1100.7072,-167"/>
<polygon fill="#000000" stroke="#000000" points="1100.7072,-163.5001 1090.7072,-167 1100.7071,-170.5001 1100.7072,-163.5001"/>
</g>
<!-- CreateListingComponent -->
<g id="node5" class="node">
<title>CreateListingComponent</title>
<polygon fill="#ffffb3" stroke="#000000" points="1397.5337,-122 1240.4663,-122 1240.4663,-86 1397.5337,-86 1397.5337,-122"/>
<text text-anchor="middle" x="1319" y="-99.8" font-family="Times,serif" font-size="14.00" fill="#000000">CreateListingComponent</text>
</g>
<!-- CreateListingComponent&#45;&gt;AppModule -->
<g id="edge5" class="edge">
<title>CreateListingComponent&#45;&gt;AppModule</title>
<path fill="none" stroke="#000000" d="M1319,-122.0336C1319,-139.0597 1319,-162 1319,-162 1319,-162 1100.8913,-162 1100.8913,-162"/>
<polygon fill="#000000" stroke="#000000" points="1100.8913,-158.5001 1090.8913,-162 1100.8912,-165.5001 1100.8913,-158.5001"/>
</g>
<!-- DetailsDialog -->
<g id="node6" class="node">
<title>DetailsDialog</title>
<polygon fill="#ffffb3" stroke="#000000" points="1221.7549,-122 1128.2451,-122 1128.2451,-86 1221.7549,-86 1221.7549,-122"/>
<text text-anchor="middle" x="1175" y="-99.8" font-family="Times,serif" font-size="14.00" fill="#000000">DetailsDialog</text>
</g>
<!-- DetailsDialog&#45;&gt;AppModule -->
<g id="edge6" class="edge">
<title>DetailsDialog&#45;&gt;AppModule</title>
<path fill="none" stroke="#000000" d="M1175,-122.2396C1175,-137.5706 1175,-157 1175,-157 1175,-157 1100.9562,-157 1100.9562,-157"/>
<polygon fill="#000000" stroke="#000000" points="1100.9562,-153.5001 1090.9562,-157 1100.9561,-160.5001 1100.9562,-153.5001"/>
</g>
<!-- HeaderComponent -->
<g id="node7" class="node">
<title>HeaderComponent</title>
<polygon fill="#ffffb3" stroke="#000000" points="1109.7437,-122 988.2563,-122 988.2563,-86 1109.7437,-86 1109.7437,-122"/>
<text text-anchor="middle" x="1049" y="-99.8" font-family="Times,serif" font-size="14.00" fill="#000000">HeaderComponent</text>
</g>
<!-- HeaderComponent&#45;&gt;AppModule -->
<g id="edge7" class="edge">
<title>HeaderComponent&#45;&gt;AppModule</title>
<path fill="none" stroke="#000000" d="M1049,-122.1061C1049,-122.1061 1049,-140.991 1049,-140.991"/>
<polygon fill="#000000" stroke="#000000" points="1045.5001,-140.9909 1049,-150.991 1052.5001,-140.991 1045.5001,-140.9909"/>
</g>
<!-- HomeComponent -->
<g id="node8" class="node">
<title>HomeComponent</title>
<polygon fill="#ffffb3" stroke="#000000" points="969.5451,-122 854.4549,-122 854.4549,-86 969.5451,-86 969.5451,-122"/>
<text text-anchor="middle" x="912" y="-99.8" font-family="Times,serif" font-size="14.00" fill="#000000">HomeComponent</text>
</g>
<!-- HomeComponent&#45;&gt;AppModule -->
<g id="edge8" class="edge">
<title>HomeComponent&#45;&gt;AppModule</title>
<path fill="none" stroke="#000000" d="M912,-122.2396C912,-137.5706 912,-157 912,-157 912,-157 997.1511,-157 997.1511,-157"/>
<polygon fill="#000000" stroke="#000000" points="997.1511,-160.5001 1007.1511,-157 997.151,-153.5001 997.1511,-160.5001"/>
</g>
<!-- LoginComponent -->
<g id="node9" class="node">
<title>LoginComponent</title>
<polygon fill="#ffffb3" stroke="#000000" points="836.2758,-122 721.7242,-122 721.7242,-86 836.2758,-86 836.2758,-122"/>
<text text-anchor="middle" x="779" y="-99.8" font-family="Times,serif" font-size="14.00" fill="#000000">LoginComponent</text>
</g>
<!-- LoginComponent&#45;&gt;AppModule -->
<g id="edge9" class="edge">
<title>LoginComponent&#45;&gt;AppModule</title>
<path fill="none" stroke="#000000" d="M779,-122.0336C779,-139.0597 779,-162 779,-162 779,-162 997.1087,-162 997.1087,-162"/>
<polygon fill="#000000" stroke="#000000" points="997.1088,-165.5001 1007.1087,-162 997.1087,-158.5001 997.1088,-165.5001"/>
</g>
<!-- PostedApartmentsComponent -->
<g id="node10" class="node">
<title>PostedApartmentsComponent</title>
<polygon fill="#ffffb3" stroke="#000000" points="703.9776,-122 520.0224,-122 520.0224,-86 703.9776,-86 703.9776,-122"/>
<text text-anchor="middle" x="612" y="-99.8" font-family="Times,serif" font-size="14.00" fill="#000000">PostedApartmentsComponent</text>
</g>
<!-- PostedApartmentsComponent&#45;&gt;AppModule -->
<g id="edge10" class="edge">
<title>PostedApartmentsComponent&#45;&gt;AppModule</title>
<path fill="none" stroke="#000000" d="M612,-122.2222C612,-140.8285 612,-167 612,-167 612,-167 997.0986,-167 997.0986,-167"/>
<polygon fill="#000000" stroke="#000000" points="997.0986,-170.5001 1007.0986,-167 997.0986,-163.5001 997.0986,-170.5001"/>
</g>
<!-- RegisterComponent -->
<g id="node11" class="node">
<title>RegisterComponent</title>
<polygon fill="#ffffb3" stroke="#000000" points="501.9846,-122 374.0154,-122 374.0154,-86 501.9846,-86 501.9846,-122"/>
<text text-anchor="middle" x="438" y="-99.8" font-family="Times,serif" font-size="14.00" fill="#000000">RegisterComponent</text>
</g>
<!-- RegisterComponent&#45;&gt;AppModule -->
<g id="edge11" class="edge">
<title>RegisterComponent&#45;&gt;AppModule</title>
<path fill="none" stroke="#000000" d="M438,-122.2228C438,-142.3652 438,-172 438,-172 438,-172 997.0035,-172 997.0035,-172"/>
<polygon fill="#000000" stroke="#000000" points="997.0035,-175.5001 1007.0035,-172 997.0035,-168.5001 997.0035,-175.5001"/>
</g>
<!-- SavedApartmentsComponent -->
<g id="node12" class="node">
<title>SavedApartmentsComponent</title>
<polygon fill="#ffffb3" stroke="#000000" points="356.3571,-122 175.6429,-122 175.6429,-86 356.3571,-86 356.3571,-122"/>
<text text-anchor="middle" x="266" y="-99.8" font-family="Times,serif" font-size="14.00" fill="#000000">SavedApartmentsComponent</text>
</g>
<!-- SavedApartmentsComponent&#45;&gt;AppModule -->
<g id="edge12" class="edge">
<title>SavedApartmentsComponent&#45;&gt;AppModule</title>
<path fill="none" stroke="#000000" d="M266,-122.0449C266,-143.6623 266,-177 266,-177 266,-177 997.1793,-177 997.1793,-177"/>
<polygon fill="#000000" stroke="#000000" points="997.1794,-180.5001 1007.1793,-177 997.1793,-173.5001 997.1794,-180.5001"/>
</g>
<!-- AppComponent  -->
<g id="node15" class="node">
<title>AppComponent </title>
<polygon fill="#80b1d3" stroke="#000000" points="1103.439,-252 994.561,-252 994.561,-216 1103.439,-216 1103.439,-252"/>
<text text-anchor="middle" x="1049" y="-229.8" font-family="Times,serif" font-size="14.00" fill="#000000">AppComponent </text>
</g>
<!-- AppModule&#45;&gt;AppComponent  -->
<g id="edge14" class="edge">
<title>AppModule&#45;&gt;AppComponent </title>
<path fill="none" stroke="#000000" stroke-dasharray="1,5" d="M1049,-187.1061C1049,-187.1061 1049,-205.991 1049,-205.991"/>
<polygon fill="#000000" stroke="#000000" points="1045.5001,-205.9909 1049,-215.991 1052.5001,-205.991 1045.5001,-205.9909"/>
</g>
<!-- AppRoutingModule -->
<g id="node14" class="node">
<title>AppRoutingModule</title>
<polygon fill="#8dd3c7" stroke="#000000" points="152.2744,-122 149.2744,-126 128.2744,-126 125.2744,-122 23.7256,-122 23.7256,-86 152.2744,-86 152.2744,-122"/>
<text text-anchor="middle" x="88" y="-99.8" font-family="Times,serif" font-size="14.00" fill="#000000">AppRoutingModule</text>
</g>
<!-- AppRoutingModule&#45;&gt;AppModule -->
<g id="edge13" class="edge">
<title>AppRoutingModule&#45;&gt;AppModule</title>
<path fill="none" stroke="#000000" d="M88,-122.0908C88,-145.1328 88,-182 88,-182 88,-182 997.0891,-182 997.0891,-182"/>
<polygon fill="#000000" stroke="#000000" points="997.0891,-185.5001 1007.0891,-182 997.0891,-178.5001 997.0891,-185.5001"/>
</g>
</g>
</svg>
